<?xml version="1.0" encoding="UTF-8"?>
<svg width="152px" height="152px" viewBox="0 0 152 152" version="1.1" xmlns="http://www.w3.org/2000/svg" xmlns:xlink="http://www.w3.org/1999/xlink">
    <!-- Generator: Sketch 63.1 (92452) - https://sketch.com -->
    <title>Group</title>
    <desc>Created with Sketch.</desc>
    <defs>
        <path d="M3.37616087,5.68434189e-14 L65.5792787,5.68434189e-14 C67.236133,5.69831489e-14 68.5792787,1.34314575 68.5792787,3 C68.5792787,3.13091072 68.5707099,3.26168107 68.5536273,3.39147245 L56.3352814,96.2246208 C56.1935005,97.3018448 55.4803545,98.2182188 54.4709509,98.6202357 C48.8135668,100.873412 42.0143628,102 34.0733391,102 C26.1247692,102 19.1982761,100.87127 13.29386,98.6138092 C12.2520247,98.2154759 11.5171883,97.2720282 11.3860403,96.1643774 L0.396970816,3.35274162 C0.202156999,1.70738039 1.37805802,0.215623767 3.02341925,0.0208099505 C3.14048879,0.00694870037 3.25827358,5.8197342e-14 3.37616087,5.68434189e-14 Z" id="path-1"></path>
    </defs>
    <g id="Page-1" stroke="none" stroke-width="1" fill="none" fill-rule="evenodd">
        <g id="Desktop-HD" transform="translate(-644.000000, -91.000000)">
            <g id="Group" transform="translate(644.000000, 91.000000)">
                <circle id="Oval" fill="#22251E" cx="76" cy="76" r="76"></circle>
                <circle id="Oval" stroke="#F9827B" stroke-width="7" cx="76" cy="76" r="66.5"></circle>
                <g id="Rectangle" transform="translate(42.000000, 32.000000)">
                    <mask id="mask-2" fill="white">
                        <use xlink:href="#path-1"></use>
                    </mask>
                    <use id="Mask" fill="#FAE9D8" xlink:href="#path-1"></use>
                    <path d="M11.3224382,17 L56.6396465,17 C58.2965008,17 59.6396465,18.3431458 59.6396465,20 C59.6396465,20.1132216 59.633237,20.2263525 59.6204486,20.3388495 L50.5069193,100.509026 C50.372458,101.69183 49.5513612,102.683237 48.4143075,103.035678 C42.0385941,105.011893 37.1266444,106 33.6784584,106 C30.2282129,106 25.2201653,105.010712 18.6543157,103.032135 C17.4945152,102.682642 16.6586907,101.669952 16.5354594,100.464922 L8.33800312,20.3052004 C8.16944561,18.6569424 9.36897985,17.1841224 11.0172378,17.0155649 C11.1186408,17.005195 11.2205064,17 11.3224382,17 Z" fill="#F9827B" mask="url(#mask-2)"></path>
                </g>
            </g>
        </g>
    </g>
</svg>